# vtk DataFile Version 2.0
sampleSurface
ASCII
DATASET POLYDATA
POINTS 328 double
-0.0275 -0.0375 -0.01
-0.0275 -0.0375 0.01
0.0275 -0.0375 0.01
0.0275 -0.0375 -0.01
-0.0375 -0.0275 -0.01
-0.0375 -0.0275 0.01
0.0375 -0.0275 0.01
0.0375 -0.0275 -0.01
-0.0375 0.0275 -0.01
-0.0375 0.0275 0.01
0.0375 0.0275 -0.01
0.0375 0.0275 0.01
-0.0275 0.0375 -0.01
-0.0275 0.0375 0.01
0.0275 0.0375 -0.01
0.0275 0.0375 0.01
-0.02 -0.0425 -0.01
-0.02 -0.0425 0.01
0.02 -0.0425 0.01
0.02 -0.0425 -0.01
-0.0425 -0.02 -0.01
-0.0425 -0.02 0.01
0.0425 -0.02 0.01
0.0425 -0.02 -0.01
-0.0425 0.02 -0.01
-0.0425 0.02 0.01
0.0425 0.02 -0.01
0.0425 0.02 0.01
-0.02 0.0425 -0.01
-0.02 0.0425 0.01
0.02 0.0425 -0.01
0.02 0.0425 0.01
-0.025 -0.04 -0.01
-0.025 -0.04 0.01
0.025 -0.04 0.01
0.025 -0.04 -0.01
-0.04 -0.025 -0.01
-0.04 -0.025 0.01
0.04 -0.025 0.01
0.04 -0.025 -0.01
-0.04 0.025 -0.01
-0.04 0.025 0.01
0.04 0.025 -0.01
0.04 0.025 0.01
-0.025 0.04 -0.01
-0.025 0.04 0.01
0.025 0.04 -0.01
0.025 0.04 0.01
-0.015 -0.045 -0.01
-0.015 -0.045 0.01
0.015 -0.045 0.01
0.015 -0.045 -0.01
-0.045 -0.015 -0.01
-0.045 -0.015 0.01
0.045 -0.015 0.01
0.045 -0.015 -0.01
-0.045 0.015 -0.01
-0.045 0.015 0.01
0.045 0.015 -0.01
0.045 0.015 0.01
-0.015 0.045 -0.01
-0.015 0.045 0.01
0.015 0.045 -0.01
0.015 0.045 0.01
1.85037e-17 -0.0475 0.01
1.85037e-17 -0.0475 -0.01
-5.55112e-17 0.0475 0.01
-5.55112e-17 0.0475 -0.01
-0.0475 0 -0.01
-0.0475 0 0.01
0.0475 0 0.01
0.0475 0 -0.01
-0.0025 -0.0475 0.01
-0.0025 -0.0475 -0.01
0.0025 -0.0475 0.01
0.0025 -0.0475 -0.01
-0.0025 0.0475 0.01
-0.0025 0.0475 -0.01
0.0025 0.0475 0.01
0.0025 0.0475 -0.01
-0.0475 -0.0025 -0.01
-0.0475 -0.0025 0.01
0.0475 -0.0025 0.01
0.0475 -0.0025 -0.01
-0.0475 0.0025 -0.01
-0.0475 0.0025 0.01
0.0475 0.0025 0.01
0.0475 0.0025 -0.01
-0.005 -0.0475 -0.01
-0.005 -0.0475 0.01
0.005 -0.0475 0.01
0.005 -0.0475 -0.01
-0.005 0.0475 0.01
-0.005 0.0475 -0.01
0.005 0.0475 0.01
0.005 0.0475 -0.01
-0.0475 -0.005 -0.01
-0.0475 -0.005 0.01
0.0475 -0.005 0.01
0.0475 -0.005 -0.01
-0.0475 0.005 -0.01
-0.0475 0.005 0.01
0.0475 0.005 0.01
0.0475 0.005 -0.01
-0.0325 -0.035 -0.01
-0.0325 -0.035 0.01
0.0325 -0.035 0.01
0.0325 -0.035 -0.01
-0.035 -0.0325 -0.01
-0.035 -0.0325 0.01
0.035 -0.0325 0.01
0.035 -0.0325 -0.01
-0.035 0.0325 -0.01
-0.035 0.0325 0.01
0.035 0.0325 -0.01
0.035 0.0325 0.01
-0.0325 0.035 -0.01
-0.0325 0.035 0.01
0.0325 0.035 -0.01
0.0325 0.035 0.01
-0.03 -0.0375 0.01
-0.03 -0.0375 -0.01
0.03 -0.0375 0.01
0.03 -0.0375 -0.01
-0.0375 -0.03 -0.01
-0.0375 -0.03 0.01
0.0375 -0.03 0.01
0.0375 -0.03 -0.01
-0.0375 0.03 -0.01
-0.0375 0.03 0.01
0.0375 0.03 0.01
0.0375 0.03 -0.01
-0.03 0.0375 -0.01
-0.03 0.0375 0.01
0.03 0.0375 -0.01
0.03 0.0375 0.01
-0.0075 -0.0475 0.01
-0.0075 -0.0475 -0.01
0.0075 -0.0475 0.01
0.0075 -0.0475 -0.01
-0.0475 -0.0075 -0.01
-0.0475 -0.0075 0.01
0.0475 -0.0075 0.01
0.0475 -0.0075 -0.01
-0.0475 0.0075 -0.01
-0.0475 0.0075 0.01
0.0475 0.0075 0.01
0.0475 0.0075 -0.01
-0.0075 0.0475 -0.01
-0.0075 0.0475 0.01
0.0075 0.0475 -0.01
0.0075 0.0475 0.01
-0.0225 -0.0425 0.01
-0.0225 -0.0425 -0.01
0.0225 -0.0425 0.01
0.0225 -0.0425 -0.01
-0.0425 -0.0225 -0.01
-0.0425 -0.0225 0.01
0.0425 -0.0225 0.01
0.0425 -0.0225 -0.01
-0.0425 0.0225 -0.01
-0.0425 0.0225 0.01
0.0425 0.0225 0.01
0.0425 0.0225 -0.01
-0.0225 0.0425 -0.01
-0.0225 0.0425 0.01
0.0225 0.0425 -0.01
0.0225 0.0425 0.01
-0.0175 -0.045 0.01
-0.0175 -0.045 -0.01
0.0175 -0.045 0.01
0.0175 -0.045 -0.01
-0.045 -0.0175 -0.01
-0.045 -0.0175 0.01
0.045 -0.0175 0.01
0.045 -0.0175 -0.01
-0.045 0.0175 -0.01
-0.045 0.0175 0.01
0.045 0.0175 0.01
0.045 0.0175 -0.01
-0.0175 0.045 -0.01
-0.0175 0.045 0.01
0.0175 0.045 -0.01
0.0175 0.045 0.01
-0.01 -0.0475 0.01
-0.01 -0.0475 -0.01
0.01 -0.0475 0.01
0.01 -0.0475 -0.01
-0.0275 -0.04 -0.01
-0.0275 -0.04 0.01
0.0275 -0.04 0.01
0.0275 -0.04 -0.01
-0.04 -0.0275 -0.01
-0.04 -0.0275 0.01
0.04 -0.0275 0.01
0.04 -0.0275 -0.01
-0.0475 -0.01 -0.01
-0.0475 -0.01 0.01
0.0475 -0.01 0.01
0.0475 -0.01 -0.01
-0.0475 0.01 -0.01
-0.0475 0.01 0.01
0.0475 0.01 0.01
0.0475 0.01 -0.01
-0.04 0.0275 -0.01
-0.04 0.0275 0.01
0.04 0.0275 0.01
0.04 0.0275 -0.01
-0.0275 0.04 -0.01
-0.0275 0.04 0.01
0.0275 0.04 0.01
0.0275 0.04 -0.01
-0.01 0.0475 -0.01
-0.01 0.0475 0.01
0.01 0.0475 -0.01
0.01 0.0475 0.01
-0.0025 -0.05 0
0.0025 -0.05 0
-0.0025 0.05 0
0.0025 0.05 0
-0.0125 -0.0475 0.01
-0.0125 -0.0475 -0.01
0.0125 -0.0475 0.01
0.0125 -0.0475 -0.01
-0.0475 -0.0125 -0.01
-0.0475 -0.0125 0.01
0.0475 -0.0125 0.01
0.0475 -0.0125 -0.01
-0.0475 0.0125 -0.01
-0.0475 0.0125 0.01
0.0475 0.0125 0.01
0.0475 0.0125 -0.01
-0.0125 0.0475 -0.01
-0.0125 0.0475 0.01
0.0125 0.0475 -0.01
0.0125 0.0475 0.01
-0.02 -0.045 -0.01
-0.02 -0.045 0.01
0.02 -0.045 0.01
0.02 -0.045 -0.01
-0.045 -0.02 -0.01
-0.045 -0.02 0.01
0.045 -0.02 0.01
0.045 -0.02 -0.01
-0.045 0.02 -0.01
-0.045 0.02 0.01
0.045 0.02 0.01
0.045 0.02 -0.01
-0.02 0.045 -0.01
-0.02 0.045 0.01
0.02 0.045 0.01
0.02 0.045 -0.01
-0.025 -0.0425 -0.01
-0.025 -0.0425 0.01
0.025 -0.0425 0.01
0.025 -0.0425 -0.01
-0.0425 -0.025 -0.01
-0.0425 -0.025 0.01
0.0425 -0.025 0.01
0.0425 -0.025 -0.01
-0.0425 0.025 -0.01
-0.0425 0.025 0.01
0.0425 0.025 0.01
0.0425 0.025 -0.01
-0.025 0.0425 -0.01
-0.025 0.0425 0.01
0.025 0.0425 0.01
0.025 0.0425 -0.01
-0.035 -0.035 -0.01
-0.035 -0.035 0.01
0.035 -0.035 0.01
0.035 -0.035 -0.01
-0.035 0.035 -0.01
-0.035 0.035 0.01
0.035 0.035 0.01
0.035 0.035 -0.01
-0.0325 -0.0375 -0.01
-0.0325 -0.0375 0.01
0.0325 -0.0375 0.01
0.0325 -0.0375 -0.01
-0.0375 -0.0325 -0.01
-0.0375 -0.0325 0.01
0.0375 -0.0325 0.01
0.0375 -0.0325 -0.01
-0.0375 0.0325 -0.01
-0.0375 0.0325 0.01
0.0375 0.0325 0.01
0.0375 0.0325 -0.01
-0.0325 0.0375 -0.01
-0.0325 0.0375 0.01
0.0325 0.0375 0.01
0.0325 0.0375 -0.01
-0.015 -0.0475 -0.01
-0.015 -0.0475 0.01
0.015 -0.0475 0.01
0.015 -0.0475 -0.01
-0.0475 -0.015 -0.01
-0.0475 -0.015 0.01
0.0475 -0.015 0.01
0.0475 -0.015 -0.01
-0.0475 0.015 -0.01
-0.0475 0.015 0.01
0.0475 0.015 0.01
0.0475 0.015 -0.01
-0.015 0.0475 -0.01
-0.015 0.0475 0.01
0.015 0.0475 0.01
0.015 0.0475 -0.01
-5.55112e-17 -0.05 0.01
-5.55112e-17 -0.05 -0.01
-5.55112e-17 0.05 0.01
-5.55112e-17 0.05 -0.01
-0.00305808 -0.05 0.01
0.00305808 -0.05 -0.01
-0.00305808 0.05 -0.01
0.00305808 0.05 0.01
-0.0025 -0.0525 0.00875
0.0025 -0.0525 -0.00875
-0.0025 0.0525 -0.00875
0.0025 0.0525 0.00875
0.000151927 0.0525 0.01
-0.000151927 -0.0525 0.01
-0.000151927 0.0525 -0.01
0.00045734 -0.0525 -0.01
0.0026482 -0.0525 -0.01
-0.00294622 -0.0525 0.01
-0.00324696 0.0525 -0.01
0.00324696 0.0525 0.01

POLYGONS 160 824
4 312 325 316 216
5 308 309 216 316 321
5 217 308 317 323 309
4 217 313 324 317
6 72 216 73 88 89 312
7 64 72 308 216 309 73 65
7 217 74 308 64 65 309 75
6 90 91 313 75 217 74
6 218 76 92 93 314 77
7 218 310 76 66 67 77 311
7 78 219 66 310 311 67 79
6 94 315 78 219 79 95
4 218 314 326 318
5 318 322 311 218 310
5 219 319 320 310 311
4 319 219 315 327
4 292 293 220 221
4 221 220 184 185
4 185 184 136 137
4 137 136 89 88
4 91 90 138 139
4 139 138 186 187
4 187 186 222 223
4 223 222 294 295
4 236 237 168 169
4 292 48 49 293
4 169 168 49 48
4 295 294 50 51
4 51 50 170 171
4 171 170 238 239
4 252 253 152 153
4 236 16 17 237
4 153 152 17 16
4 239 238 18 19
4 19 18 154 155
4 155 154 254 255
4 252 32 33 253
4 188 189 33 32
4 255 254 34 35
4 35 34 190 191
4 276 277 120 121
4 188 0 1 189
4 121 120 1 0
4 191 190 2 3
4 3 2 122 123
4 123 122 278 279
4 276 104 105 277
4 268 269 105 104
4 279 278 106 107
4 107 106 270 271
4 268 108 109 269
4 280 281 109 108
4 271 270 110 111
4 111 110 282 283
4 280 124 125 281
4 283 282 126 127
4 124 4 5 125
4 192 193 5 4
4 127 126 6 7
4 7 6 194 195
4 192 36 37 193
4 256 257 37 36
4 195 194 38 39
4 39 38 258 259
4 256 156 157 257
4 259 258 158 159
4 156 20 21 157
4 240 241 21 20
4 159 158 22 23
4 23 22 242 243
4 240 172 173 241
4 243 242 174 175
4 172 52 53 173
4 296 297 53 52
4 175 174 54 55
4 55 54 298 299
4 296 224 225 297
4 299 298 226 227
4 224 196 197 225
4 227 226 198 199
4 196 140 141 197
4 199 198 142 143
4 140 96 97 141
4 143 142 98 99
4 96 80 81 97
4 99 98 82 83
4 80 68 69 81
4 83 82 70 71
4 68 84 85 69
4 71 70 86 87
4 84 100 101 85
4 87 86 102 103
4 100 144 145 101
4 103 102 146 147
4 144 200 201 145
4 147 146 202 203
4 200 228 229 201
4 203 202 230 231
4 228 300 301 229
4 300 56 57 301
4 231 230 302 303
4 58 303 302 59
4 56 176 177 57
4 58 59 178 179
4 176 244 245 177
4 244 24 25 245
4 179 178 246 247
4 26 247 246 27
4 24 160 161 25
4 26 27 162 163
4 160 260 261 161
4 260 40 41 261
4 163 162 262 263
4 42 263 262 43
4 40 204 205 41
4 204 8 9 205
4 42 43 206 207
4 10 207 206 11
4 8 128 129 9
4 10 11 130 131
4 128 284 285 129
4 284 112 113 285
4 131 130 286 287
4 114 287 286 115
4 112 272 273 113
4 272 116 117 273
4 114 115 274 275
4 118 275 274 119
4 116 288 289 117
4 288 132 133 289
4 132 12 13 133
4 14 134 135 15
4 118 119 290 291
4 134 291 290 135
4 12 208 209 13
4 208 44 45 209
4 14 15 210 211
4 46 211 210 47
4 44 264 265 45
4 264 164 165 265
4 164 28 29 165
4 30 166 167 31
4 46 47 266 267
4 166 267 266 167
4 28 248 249 29
4 248 180 181 249
4 180 60 61 181
4 62 182 183 63
4 30 31 250 251
4 182 251 250 183
4 60 304 305 61
4 304 232 233 305
4 232 212 213 233
4 212 148 149 213
4 148 93 92 149
4 95 150 151 94
4 150 214 215 151
4 214 234 235 215
4 62 63 306 307
4 234 307 306 235
CELL_DATA 160
FIELD attributes 1
divSf 3 160 double
8.3749e-14 -2.29789 10.3436
0 0 0
0 0 0
-2.7739e-14 -0.758346 -7.22799
0 0 0
0 0 1.90577e-43
0 0 -1.37327e-43
0 0 0
0 0 0
0 0 0
0 0 0
0 0 0
2.80977e-14 3.87158 -13.5283
0 0 0
0 0 0
1.40488e-14 3.87158 13.5283
0 3.79471e-13 0
0 3.79471e-13 0
0 3.79471e-13 0
0 3.79471e-13 0
0 3.79471e-13 0
0 3.79471e-13 0
0 3.79471e-13 0
0 3.79471e-13 0
0 3.79471e-13 0
400 400 0
400 400 0
-400 400 0
-400 400 0
0 3.79471e-13 0
0 3.79471e-13 0
400 400 0
400 400 0
-400 400 0
-400 400 0
0 3.79471e-13 0
400 400 0
400 400 0
-400 400 0
-400 400 0
0 3.79471e-13 0
400 400 0
400 400 0
-400 400 0
-400 400 0
0 3.79471e-13 0
400 400 0
400 400 0
-400 400 0
-400 400 0
400 400 0
400 400 0
-400 400 0
-400 400 0
3.79471e-13 0 0
-3.79471e-13 0 0
400 400 0
400 400 0
-400 400 0
-400 400 0
400 400 0
400 400 0
-400 400 0
-400 400 0
3.79471e-13 0 0
-3.79471e-13 0 0
400 400 0
400 400 0
-400 400 0
-400 400 0
3.79471e-13 0 0
-3.79471e-13 0 0
400 400 0
400 400 0
-400 400 0
-400 400 0
3.79471e-13 0 0
-3.79471e-13 0 0
3.79471e-13 0 0
-3.25261e-13 0 0
3.79471e-13 0 0
-3.79471e-13 0 0
3.79471e-13 0 0
-3.25261e-13 0 0
3.79471e-13 0 0
-4.33681e-13 0 0
3.79471e-13 0 0
-3.79471e-13 0 0
3.79471e-13 0 0
-3.79471e-13 0 0
3.79471e-13 0 0
-4.33681e-13 0 0
3.79471e-13 0 0
-3.79471e-13 0 0
3.79471e-13 0 0
-3.25261e-13 0 0
3.79471e-13 0 0
-3.25261e-13 0 0
3.79471e-13 0 0
400 -400 0
-3.79471e-13 0 0
-400 -400 0
400 -400 0
-400 -400 0
3.79471e-13 0 0
400 -400 0
-3.79471e-13 0 0
-400 -400 0
400 -400 0
-400 -400 0
3.79471e-13 0 0
400 -400 0
-3.79471e-13 0 0
-400 -400 0
400 -400 0
400 -400 0
-400 -400 0
-400 -400 0
400 -400 0
-400 -400 0
3.79471e-13 0 0
400 -400 0
-3.79471e-13 0 0
-400 -400 0
400 -400 0
400 -400 0
-400 -400 0
-400 -400 0
400 -400 0
0 -3.79471e-13 0
400 -400 0
-400 -400 0
-400 -400 0
0 -3.79471e-13 0
400 -400 0
400 -400 0
-400 -400 0
-400 -400 0
400 -400 0
0 -3.79471e-13 0
400 -400 0
-400 -400 0
-400 -400 0
0 -3.79471e-13 0
400 -400 0
0 -3.79471e-13 0
400 -400 0
-400 -400 0
-400 -400 0
0 -3.79471e-13 0
400 -400 0
0 -3.79471e-13 0
0 -4.33681e-13 0
0 -3.79471e-13 0
0 -4.33681e-13 0
0 -3.79471e-13 0
0 -4.33681e-13 0
0 -4.33681e-13 0
-400 -400 0
0 -3.79471e-13 0
