# vtk DataFile Version 2.0
sampleSurface
ASCII
DATASET POLYDATA
POINTS 208 double
-0.0321429 -0.0321429 -0.01
-0.0321429 -0.0321429 0.01
0.0321429 -0.0321429 0.01
0.0321429 -0.0321429 -0.01
-0.0321429 0.0321429 -0.01
-0.0321429 0.0321429 0.01
0.0321429 0.0321429 -0.01
0.0321429 0.0321429 0.01
-0.0285714 -0.0357143 -0.01
-0.0285714 -0.0357143 0.01
0.0285714 -0.0357143 0.01
0.0285714 -0.0357143 -0.01
-0.0357143 -0.0285714 -0.01
-0.0357143 -0.0285714 0.01
0.0357143 -0.0285714 0.01
0.0357143 -0.0285714 -0.01
-0.0357143 0.0285714 -0.01
-0.0357143 0.0285714 0.01
0.0357143 0.0285714 -0.01
0.0357143 0.0285714 0.01
-0.0285714 0.0357143 -0.01
-0.0285714 0.0357143 0.01
0.0285714 0.0357143 -0.01
0.0285714 0.0357143 0.01
1.85037e-17 -0.0464286 0.01
1.85037e-17 -0.0464286 -0.01
-0.0464286 0 -0.01
-0.0464286 0 0.01
0.0464286 0 0.01
0.0464286 0 -0.01
-5.55112e-17 0.0464286 -0.01
-5.55112e-17 0.0464286 0.01
-0.0178571 -0.0428571 -0.01
-0.0178571 -0.0428571 0.01
0.0178571 -0.0428571 0.01
0.0178571 -0.0428571 -0.01
-0.0428571 -0.0178571 -0.01
-0.0428571 -0.0178571 0.01
0.0428571 -0.0178571 0.01
0.0428571 -0.0178571 -0.01
-0.0428571 0.0178571 -0.01
-0.0428571 0.0178571 0.01
0.0428571 0.0178571 -0.01
0.0428571 0.0178571 0.01
-0.0178571 0.0428571 -0.01
-0.0178571 0.0428571 0.01
0.0178571 0.0428571 -0.01
0.0178571 0.0428571 0.01
-0.00357143 -0.0464286 0.01
-0.00357143 -0.0464286 -0.01
0.00357143 -0.0464286 0.01
0.00357143 -0.0464286 -0.01
-0.0464286 -0.00357143 -0.01
-0.0464286 -0.00357143 0.01
0.0464286 -0.00357143 0.01
0.0464286 -0.00357143 -0.01
-0.0464286 0.00357143 -0.01
-0.0464286 0.00357143 0.01
0.0464286 0.00357143 0.01
0.0464286 0.00357143 -0.01
-0.00357143 0.0464286 -0.01
-0.00357143 0.0464286 0.01
0.00357143 0.0464286 -0.01
0.00357143 0.0464286 0.01
-0.025 -0.0392857 -0.01
-0.025 -0.0392857 0.01
0.025 -0.0392857 0.01
0.025 -0.0392857 -0.01
-0.0392857 -0.025 -0.01
-0.0392857 -0.025 0.01
0.0392857 -0.025 0.01
0.0392857 -0.025 -0.01
-0.0392857 0.025 -0.01
-0.0392857 0.025 0.01
0.0392857 0.025 -0.01
0.0392857 0.025 0.01
-0.025 0.0392857 -0.01
-0.025 0.0392857 0.01
0.025 0.0392857 -0.01
0.025 0.0392857 0.01
-0.00714286 -0.0464286 0.01
-0.00714286 -0.0464286 -0.01
0.00714286 -0.0464286 0.01
0.00714286 -0.0464286 -0.01
-0.0464286 -0.00714286 -0.01
-0.0464286 -0.00714286 0.01
0.0464286 -0.00714286 0.01
0.0464286 -0.00714286 -0.01
-0.0464286 0.00714286 -0.01
-0.0464286 0.00714286 0.01
0.0464286 0.00714286 0.01
0.0464286 0.00714286 -0.01
-0.00714286 0.0464286 -0.01
-0.00714286 0.0464286 0.01
0.00714286 0.0464286 -0.01
0.00714286 0.0464286 0.01
-0.0107143 -0.0464286 0.01
-0.0107143 -0.0464286 -0.01
0.0107143 -0.0464286 0.01
0.0107143 -0.0464286 -0.01
-0.0464286 -0.0107143 -0.01
-0.0464286 -0.0107143 0.01
0.0464286 -0.0107143 0.01
0.0464286 -0.0107143 -0.01
-0.0464286 0.0107143 -0.01
-0.0464286 0.0107143 0.01
0.0464286 0.0107143 0.01
0.0464286 0.0107143 -0.01
-0.0107143 0.0464286 -0.01
-0.0107143 0.0464286 0.01
0.0107143 0.0464286 -0.01
0.0107143 0.0464286 0.01
-0.0214286 -0.0428571 0.01
-0.0214286 -0.0428571 -0.01
0.0214286 -0.0428571 0.01
0.0214286 -0.0428571 -0.01
-0.0428571 -0.0214286 -0.01
-0.0428571 -0.0214286 0.01
0.0428571 -0.0214286 0.01
0.0428571 -0.0214286 -0.01
-0.0428571 0.0214286 -0.01
-0.0428571 0.0214286 0.01
0.0428571 0.0214286 0.01
0.0428571 0.0214286 -0.01
-0.0214286 0.0428571 -0.01
-0.0214286 0.0428571 0.01
0.0214286 0.0428571 -0.01
0.0214286 0.0428571 0.01
-0.0321429 -0.0357143 -0.01
-0.0321429 -0.0357143 0.01
0.0321429 -0.0357143 0.01
0.0321429 -0.0357143 -0.01
-0.0357143 -0.0321429 -0.01
-0.0357143 -0.0321429 0.01
0.0357143 -0.0321429 0.01
0.0357143 -0.0321429 -0.01
-0.0357143 0.0321429 -0.01
-0.0357143 0.0321429 0.01
0.0357143 0.0321429 0.01
0.0357143 0.0321429 -0.01
-0.0321429 0.0357143 -0.01
-0.0321429 0.0357143 0.01
0.0321429 0.0357143 0.01
0.0321429 0.0357143 -0.01
-0.0142857 -0.0464286 0.01
-0.0142857 -0.0464286 -0.01
0.0142857 -0.0464286 0.01
0.0142857 -0.0464286 -0.01
-0.0285714 -0.0392857 -0.01
-0.0285714 -0.0392857 0.01
0.0285714 -0.0392857 0.01
0.0285714 -0.0392857 -0.01
-0.0392857 -0.0285714 -0.01
-0.0392857 -0.0285714 0.01
0.0392857 -0.0285714 0.01
0.0392857 -0.0285714 -0.01
-0.0464286 -0.0142857 -0.01
-0.0464286 -0.0142857 0.01
0.0464286 -0.0142857 0.01
0.0464286 -0.0142857 -0.01
-0.0464286 0.0142857 -0.01
-0.0464286 0.0142857 0.01
0.0464286 0.0142857 0.01
0.0464286 0.0142857 -0.01
-0.0392857 0.0285714 -0.01
-0.0392857 0.0285714 0.01
0.0392857 0.0285714 0.01
0.0392857 0.0285714 -0.01
-0.0285714 0.0392857 -0.01
-0.0285714 0.0392857 0.01
0.0285714 0.0392857 0.01
0.0285714 0.0392857 -0.01
-0.0142857 0.0464286 -0.01
-0.0142857 0.0464286 0.01
0.0142857 0.0464286 -0.01
0.0142857 0.0464286 0.01
-0.025 -0.0428571 -0.01
-0.025 -0.0428571 0.01
0.025 -0.0428571 0.01
0.025 -0.0428571 -0.01
-0.0428571 -0.025 -0.01
-0.0428571 -0.025 0.01
0.0428571 -0.025 0.01
0.0428571 -0.025 -0.01
-0.0428571 0.025 -0.01
-0.0428571 0.025 0.01
0.0428571 0.025 0.01
0.0428571 0.025 -0.01
-0.025 0.0428571 -0.01
-0.025 0.0428571 0.01
0.025 0.0428571 0.01
0.025 0.0428571 -0.01
-0.0178571 -0.0464286 -0.01
-0.0178571 -0.0464286 0.01
0.0178571 -0.0464286 0.01
0.0178571 -0.0464286 -0.01
-0.0464286 -0.0178571 -0.01
-0.0464286 -0.0178571 0.01
0.0464286 -0.0178571 0.01
0.0464286 -0.0178571 -0.01
-0.0464286 0.0178571 -0.01
-0.0464286 0.0178571 0.01
0.0464286 0.0178571 0.01
0.0464286 0.0178571 -0.01
-0.0178571 0.0464286 -0.01
-0.0178571 0.0464286 0.01
0.0178571 0.0464286 0.01
0.0178571 0.0464286 -0.01

POLYGONS 104 520
4 192 193 144 145
4 145 144 96 97
4 97 96 80 81
4 81 80 48 49
4 49 48 24 25
4 25 24 50 51
4 51 50 82 83
4 83 82 98 99
4 99 98 146 147
4 147 146 194 195
4 176 177 112 113
4 192 32 33 193
4 113 112 33 32
4 195 194 34 35
4 35 34 114 115
4 115 114 178 179
4 176 64 65 177
4 148 149 65 64
4 179 178 66 67
4 67 66 150 151
4 148 8 9 149
4 128 129 9 8
4 151 150 10 11
4 11 10 130 131
4 128 0 1 129
4 132 133 1 0
4 131 130 2 3
4 3 2 134 135
4 132 12 13 133
4 152 153 13 12
4 135 134 14 15
4 15 14 154 155
4 152 68 69 153
4 180 181 69 68
4 155 154 70 71
4 71 70 182 183
4 180 116 117 181
4 183 182 118 119
4 116 36 37 117
4 196 197 37 36
4 119 118 38 39
4 39 38 198 199
4 196 156 157 197
4 199 198 158 159
4 156 100 101 157
4 159 158 102 103
4 100 84 85 101
4 103 102 86 87
4 84 52 53 85
4 87 86 54 55
4 52 26 27 53
4 55 54 28 29
4 26 56 57 27
4 29 28 58 59
4 56 88 89 57
4 59 58 90 91
4 88 104 105 89
4 91 90 106 107
4 104 160 161 105
4 107 106 162 163
4 160 200 201 161
4 200 40 41 201
4 163 162 202 203
4 42 203 202 43
4 40 120 121 41
4 42 43 122 123
4 120 184 185 121
4 184 72 73 185
4 123 122 186 187
4 74 187 186 75
4 72 164 165 73
4 164 16 17 165
4 74 75 166 167
4 18 167 166 19
4 16 136 137 17
4 136 4 5 137
4 18 19 138 139
4 6 139 138 7
4 4 140 141 5
4 140 20 21 141
4 6 7 142 143
4 22 143 142 23
4 20 168 169 21
4 168 76 77 169
4 22 23 170 171
4 78 171 170 79
4 76 188 189 77
4 188 124 125 189
4 124 44 45 125
4 46 126 127 47
4 78 79 190 191
4 126 191 190 127
4 44 204 205 45
4 204 172 173 205
4 172 108 109 173
4 108 92 93 109
4 92 60 61 93
4 60 30 31 61
4 30 62 63 31
4 62 94 95 63
4 94 110 111 95
4 110 174 175 111
4 46 47 206 207
4 174 207 206 175
CELL_DATA 104
FIELD attributes 1
gamma 1 104 double
1 1 1 1 1 1 1 1 1 1
1 1 1 1 1 1 1 1 1 1
1 1 1 1 1 1 1 1 1 1
1 1 1 1 1 1 1 1 1 1
1 1 1 1 1 1 1 1 1 1
1 1 1 1 1 1 1 1 1 1
1 1 1 1 1 1 1 1 1 1
1 1 1 1 1 1 1 1 1 1
1 1 1 1 1 1 1 1 1 1
1 1 1 1 1 1 1 1 1 1
1 1 1 1
